<?xml version="1.0"?>
<svg xmlns="http://www.w3.org/2000/svg" version="1" viewBox="0 0 24 24" enable-background="new 0 0 24 24">
    <path d="M 9.3125 6 A 1.0001 1.0001 0 0 0 8.53125 6.75 L 7.71875 10 L 4 10 C 2.9 10 2 10.9 2 12 L 2 14.40625 C 2 14.80625 2.19375 15.1125 2.59375 15.3125 L 4.03125 15.84375 C 4.1980504 17.071633 5.2198077 18 6.5 18 C 7.725 18 8.7078125 17.148438 8.9375 16 L 17.0625 16 C 17.292188 17.148438 18.275 18 19.5 18 C 20.8125 18 21.842773 17.024414 21.96875 15.75 L 22.5 15.40625 C 22.8 15.20625 23 14.80625 23 14.40625 L 23 12.6875 C 23 12.2875 22.7125 11.9125 22.3125 11.8125 L 17.8125 10.28125 L 15.34375 7.1875 L 15.28125 7.09375 L 15.25 7.125 C 14.743786 6.3751261 13.882025 6 13.09375 6 L 9.5 6 A 1.0001 1.0001 0 0 0 9.40625 6 A 1.0001 1.0001 0 0 0 9.3125 6 z M 10.28125 8 L 13.09375 8 C 13.471528 8 13.547925 8.038208 13.65625 8.21875 A 1.0001 1.0001 0 0 0 13.71875 8.3125 L 15.0625 10 L 9.78125 10 L 10.28125 8 z M 6.5 14.59375 C 7 14.59375 7.40625 15 7.40625 15.5 C 7.40625 16 7 16.40625 6.5 16.40625 C 6 16.40625 5.59375 16 5.59375 15.5 C 5.59375 15 6 14.59375 6.5 14.59375 z M 19.5 14.59375 C 20 14.59375 20.40625 15 20.40625 15.5 C 20.40625 16 20 16.40625 19.5 16.40625 C 19 16.40625 18.59375 16 18.59375 15.5 C 18.59375 15 19 14.59375 19.5 14.59375 z"/>
</svg>
