<?xml version="1.0"?>
<svg xmlns="http://www.w3.org/2000/svg" viewBox="0 0 24 24">
    <path d="M 3 4 C 2.448 4 2 4.448 2 5 L 2 17 C 2 17.552 2.448 18 3 18 L 4 18 C 4 16.343 5.343 15 7 15 C 8.657 15 10 16.343 10 18 L 14 18 C 14 16.343 15.343 15 17 15 C 18.657 15 20 16.343 20 18 L 21 18 C 21.552 18 22 17.552 22 17 L 22 12.75 L 20.15625 9.09375 C 19.81725 8.41675 19.133 8 18.375 8 L 14 8 L 14 5 C 14 4.448 13.552 4 13 4 L 3 4 z M 16 10 L 18.375 10 L 19.875 13 L 16 13 L 16 10 z M 7 16 C 5.8954305 16 5 16.895431 5 18 C 5 19.104569 5.8954305 20 7 20 C 8.1045695 20 9 19.104569 9 18 C 9 16.895431 8.1045695 16 7 16 z M 17 16 C 15.895431 16 15 16.895431 15 18 C 15 19.104569 15.895431 20 17 20 C 18.104569 20 19 19.104569 19 18 C 19 16.895431 18.104569 16 17 16 z"/>
</svg>
